<svg width="25" height="24" viewBox="0 0 25 24" fill="none" xmlns="http://www.w3.org/2000/svg">
<path fill-rule="evenodd" clip-rule="evenodd" d="M14.0859 20.5V4.25C14.0859 3.522 14.0839 3.05 14.0379 2.704C13.9939 2.379 13.9229 2.277 13.8659 2.22C13.8089 2.163 13.7069 2.092 13.3819 2.048C13.0349 2.002 12.5639 2 11.8359 2C11.1079 2 10.6359 2.002 10.2899 2.048C9.96494 2.092 9.86294 2.163 9.80594 2.22C9.74894 2.277 9.67794 2.379 9.63394 2.704C9.58794 3.051 9.58594 3.522 9.58594 4.25V20.5H14.0859Z" fill="#4F4F4F"/>
<path opacity="0.7" d="M8.08594 8.75C8.08594 8.55109 8.00692 8.36032 7.86627 8.21967C7.72562 8.07902 7.53485 8 7.33594 8H4.33594C4.13703 8 3.94626 8.07902 3.80561 8.21967C3.66496 8.36032 3.58594 8.55109 3.58594 8.75V20.5H8.08594V8.75ZM20.0859 13.75C20.0859 13.5511 20.0069 13.3603 19.8663 13.2197C19.7256 13.079 19.5349 13 19.3359 13H16.3359C16.137 13 15.9463 13.079 15.8056 13.2197C15.665 13.3603 15.5859 13.5511 15.5859 13.75V20.5H20.0859V13.75Z" fill="#4F4F4F"/>
<path opacity="0.5" d="M1.83594 20.5C1.63703 20.5 1.44626 20.579 1.30561 20.7197C1.16496 20.8603 1.08594 21.0511 1.08594 21.25C1.08594 21.4489 1.16496 21.6397 1.30561 21.7803C1.44626 21.921 1.63703 22 1.83594 22H21.8359C22.0348 22 22.2256 21.921 22.3663 21.7803C22.5069 21.6397 22.5859 21.4489 22.5859 21.25C22.5859 21.0511 22.5069 20.8603 22.3663 20.7197C22.2256 20.579 22.0348 20.5 21.8359 20.5H2.08594H1.83594Z" fill="#4F4F4F"/>
</svg>
