<svg width="25" height="24" viewBox="0 0 25 24" fill="none" xmlns="http://www.w3.org/2000/svg">
<path d="M5.95801 9V7H7.95801V9H5.95801ZM9.95801 9H19.958V7H9.95801V9ZM5.95801 15V17H7.95801V15H5.95801ZM19.958 17H9.95801V15H19.958V17Z" fill="#4F4F4F"/>
<path fill-rule="evenodd" clip-rule="evenodd" d="M1.95801 6C1.95801 5.20435 2.27408 4.44129 2.83669 3.87868C3.3993 3.31607 4.16236 3 4.95801 3H20.958C21.7537 3 22.5167 3.31607 23.0793 3.87868C23.6419 4.44129 23.958 5.20435 23.958 6V18C23.958 18.7956 23.6419 19.5587 23.0793 20.1213C22.5167 20.6839 21.7537 21 20.958 21H4.95801C4.16236 21 3.3993 20.6839 2.83669 20.1213C2.27408 19.5587 1.95801 18.7956 1.95801 18V6ZM4.95801 5H20.958C21.2232 5 21.4776 5.10536 21.6651 5.29289C21.8527 5.48043 21.958 5.73478 21.958 6V11H3.95801V6C3.95801 5.73478 4.06336 5.48043 4.2509 5.29289C4.43844 5.10536 4.69279 5 4.95801 5ZM3.95801 13V18C3.95801 18.2652 4.06336 18.5196 4.2509 18.7071C4.43844 18.8946 4.69279 19 4.95801 19H20.958C21.2232 19 21.4776 18.8946 21.6651 18.7071C21.8527 18.5196 21.958 18.2652 21.958 18V13H3.95801Z" fill="#828282"/>
</svg>
