<svg width="29" height="41" viewBox="0 0 29 41" fill="none" xmlns="http://www.w3.org/2000/svg">
<path d="M14.5007 9.27087C15.8544 9.27087 17.1526 9.80863 18.1098 10.7658C19.0671 11.7231 19.6048 13.0213 19.6048 14.375C19.6048 15.0453 19.4728 15.7091 19.2163 16.3283C18.9598 16.9476 18.5838 17.5103 18.1098 17.9842C17.6359 18.4582 17.0732 18.8342 16.4539 19.0907C15.8347 19.3472 15.1709 19.4792 14.5007 19.4792C13.1469 19.4792 11.8487 18.9414 10.8915 17.9842C9.93424 17.027 9.39648 15.7287 9.39648 14.375C9.39648 13.0213 9.93424 11.7231 10.8915 10.7658C11.8487 9.80863 13.1469 9.27087 14.5007 9.27087ZM14.5007 0.083374C18.291 0.083374 21.9262 1.5891 24.6064 4.26931C27.2866 6.94951 28.7923 10.5847 28.7923 14.375C28.7923 25.0938 14.5007 40.9167 14.5007 40.9167C14.5007 40.9167 0.208984 25.0938 0.208984 14.375C0.208984 10.5847 1.71471 6.94951 4.39492 4.26931C7.07512 1.5891 10.7103 0.083374 14.5007 0.083374ZM14.5007 4.16671C11.7932 4.16671 9.1967 5.24222 7.28227 7.15666C5.36784 9.07109 4.29232 11.6676 4.29232 14.375C4.29232 16.4167 4.29232 20.5 14.5007 34.1996C24.709 20.5 24.709 16.4167 24.709 14.375C24.709 11.6676 23.6335 9.07109 21.719 7.15666C19.8046 5.24222 17.2081 4.16671 14.5007 4.16671Z" fill="#67A11A"/>
</svg>
