<svg width="21" height="20" viewBox="0 0 21 20" fill="none" xmlns="http://www.w3.org/2000/svg">
<path d="M10.333 2.5C6.19738 2.5 2.83301 5.86438 2.83301 10C2.83301 14.1356 6.19738 17.5 10.333 17.5C12.8643 17.5 15.108 16.2425 16.4661 14.3163L15.4505 13.5938C14.874 14.4154 14.1078 15.0859 13.2169 15.5483C12.326 16.0107 11.3368 16.2514 10.333 16.25C6.87363 16.25 4.08301 13.4594 4.08301 10C4.08301 6.54063 6.87363 3.75 10.333 3.75C11.3367 3.74883 12.3259 3.98965 13.2167 4.45204C14.1076 4.91443 14.8738 5.58477 15.4505 6.40625L16.4661 5.68375C15.7745 4.69972 14.8561 3.89669 13.7886 3.34253C12.721 2.78837 11.5358 2.49939 10.333 2.5ZM14.923 7.05063L14.0243 7.94938L15.4505 9.375H7.83301V10.625H15.4505L14.0243 12.0506L14.923 12.9494L17.423 10.4494L17.8518 10L17.4224 9.55063L14.923 7.05063Z" fill="#4F4F4F"/>
</svg>
