<svg width="29" height="28" viewBox="0 0 29 28" fill="none" xmlns="http://www.w3.org/2000/svg">
<path d="M14.3301 4.375C10.957 4.375 8.20508 7.12687 8.20508 10.5C8.20508 12.6088 9.28133 14.4812 10.9123 15.5864C7.7912 16.9251 5.58008 20.0226 5.58008 23.625H7.33008C7.33008 19.7487 10.4538 16.625 14.3301 16.625C18.2063 16.625 21.3301 19.7487 21.3301 23.625H23.0801C23.0801 20.0226 20.869 16.926 17.7478 15.5855C18.5803 15.0236 19.2623 14.2662 19.7342 13.3796C20.2062 12.4931 20.4537 11.5044 20.4551 10.5C20.4551 7.12687 17.7032 4.375 14.3301 4.375ZM14.3301 6.125C16.7565 6.125 18.7051 8.07363 18.7051 10.5C18.7051 12.9264 16.7565 14.875 14.3301 14.875C11.9037 14.875 9.95508 12.9264 9.95508 10.5C9.95508 8.07363 11.9037 6.125 14.3301 6.125Z" fill="#B5B2B2"/>
</svg>
